<svg xmlns="http://www.w3.org/2000/svg" version="1.1" xmlns:xlink="http://www.w3.org/1999/xlink" xmlns:svgjs="http://svgjs.dev/svgjs" width="1000" height="885" viewBox="0 0 1000 885"><g transform="matrix(1,0,0,1,-0.11852326478634723,0.3589612382676819)"><svg viewBox="0 0 279 247" data-background-color="#ffffff" preserveAspectRatio="xMidYMid meet" height="885" width="1000" xmlns="http://www.w3.org/2000/svg" xmlns:xlink="http://www.w3.org/1999/xlink"><g id="tight-bounds" transform="matrix(1,0,0,1,0.033067990875395026,-0.09997365579206985)"><svg viewBox="0 0 278.9337746704871 247.2" height="247.2" width="278.9337746704871"><g><svg viewBox="0 0 278.9337746704871 247.2" height="247.2" width="278.9337746704871"><g><svg viewBox="0 0 278.9337746704871 247.2" height="247.2" width="278.9337746704871"><g id="textblocktransform"><svg viewBox="0 0 278.9337746704871 247.2" height="247.2" width="278.9337746704871" id="textblock"><g><svg viewBox="0 0 278.9337746704871 247.2" height="247.2" width="278.9337746704871"><path d="M278.281 53.02C276.969 27.36 273.232 20.227 273.232 20.227 261.758-6.202 247.438-0.506 234.574 3.292 211.862 3.446 189.242 9.091 166.582 12.119 119.02 12.581 71.052 4.986 23.726 23.717 19.28 29.464-4.612 24.846 0.791 56.304 2.207 69.39 7.374 83.913 7.216 95.922 7.924 98.026 8.908 93.202 9.327 96.23 10.796 104.39 13.196 100.541 15.163 105.365 12.422 118.246 14.389 128.971 16.264 140.21 12.96 143.135 8.724 141.749 6.823 151.449 6.626 158.479 5.564 157.145 4.397 156.837 3.545 156.632 1.827 157.402 2.115 159.608 3.099 167.152-1.124 171.514 1.525 178.904-0.298 186.91 2.784 193.838 2.364 202.511 2.312 204.255 2.6 205.744 3.059 206.154 5.092 208.361 2.128 212.672 2.443 217.342 23.293 249.262 45.914 227.195 67.275 241.872 72.822 231.608 68.652 245.516 70.868 243.36 72.599 240.846 73.858 251.263 75.812 245.362 76.113 243.668 75.654 239.665 76.73 240.435 77.294 240.846 77.792 240.743 77.871 238.382 77.989 234.841 76.953 237.048 76.677 235.201 79.654 225.861 78.92 248.081 81.713 247.158 81.582 244.438 80.769 240.538 82.434 241.051 84.086 237.151 84.139 233.918 85.607 242.693 85.66 244.592 85.922 245.926 86.342 246.85 90.931 237.305 95.495 250.237 100.307 245.926 103.258 241.205 106.09 248.492 109.08 246.696 110.129 245.259 111.191 242.693 112.201 247.004 124.567 247.928 137.746 244.079 149.469 247.158 180.797 241.41 214.275 249.518 247.307 241.923 255.096 238.998 263.187 234.841 270.78 231.506 270.78 231.506 276.93 222.371 276.93 181.316S278.241 145.393 278.438 112.703C278.635 80.013 279.553 78.679 278.241 53.02Z" opacity="1" fill="#ee3e38" data-fill-palette-color="tertiary"></path><g transform="matrix(1,0,0,1,55.76831999999999,26.230666666666668)"><svg width="167.3971346704871" viewBox="2.25 -34.9 30 34.9" height="194.73866666666666" data-palette-color="#ffffff"><path d="M2.25 0L2.25-3 5.8-3 5.8-31.9 2.25-31.9 2.25-34.9 19.9-34.9Q22.65-34.9 24.73-34.27 26.8-33.65 28.15-32.58 29.5-31.5 30.18-30 30.85-28.5 30.85-26.7L30.85-26.7Q30.85-24.85 30.25-23.45 29.65-22.05 28.63-21.05 27.6-20.05 26.3-19.43 25-18.8 23.6-18.5L23.6-18.5 23.6-18.25Q25.05-18.1 26.6-17.53 28.15-16.95 29.4-15.9 30.65-14.85 31.45-13.3 32.25-11.75 32.25-9.7L32.25-9.7Q32.25-5.1 29.38-2.55 26.5 0 21.05 0L21.05 0 2.25 0ZM12.8-16.3L12.8-3.25 19.25-3.25Q22.05-3.25 23.55-4.67 25.05-6.1 25.05-8.65L25.05-8.65 25.05-10.9Q25.05-13.45 23.55-14.88 22.05-16.3 19.25-16.3L19.25-16.3 12.8-16.3ZM12.8-31.65L12.8-19.55 18.4-19.55Q21-19.55 22.33-20.83 23.65-22.1 23.65-24.5L23.65-24.5 23.65-26.7Q23.65-29.1 22.33-30.38 21-31.65 18.4-31.65L18.4-31.65 12.8-31.65Z" opacity="1" transform="matrix(1,0,0,1,0,0)" fill="#ffffff" class="wordmark-text-0" data-fill-palette-color="quaternary" id="text-0"></path></svg></g></svg></g></svg></g></svg></g><g></g></svg></g><defs></defs></svg><rect width="278.9337746704871" height="247.2" fill="none" stroke="none" visibility="hidden"></rect></g></svg></g></svg>